# xmcd
#
# Track frame offsets:
#	150
#	23900
#	33897
#	51495
#	78035
#	91042
#	111030
#	127800
#	141315
#	151847
#	177725
#	185032
#
# Disc length: 2527 seconds
#
# Revision: 3
# Processed by: cddbd v1.5.2PL0 Copyright (c) Steve Scherf et al.
# Submitted via: audiograbber 1.83.01
#
DISCID=9509dd0c
DTITLE=Tom Waits and Crystal Gayle - One From The Heart Soundtrack
DYEAR=1982
DGENRE=Soundtrack
TTITLE0=Tom Waits and Crystal Gayle - Opening Montage (Tom's Piano Intro, Once Up
TTITLE0=on A Town, The Wages of Love)
TTITLE1=Crystal Gayle - Is There Any Way Out Of This Dream?
TTITLE2=Tom Waits and Crystal Gayle - Picking Up After You
TTITLE3=Crystal Gayle - Old Boyfriends
TTITLE4=Tom Waits - Broken Bicycles
TTITLE5=Tom Waits - I Beg Your Pardon
TTITLE6=Tom Waits - Little Boy Blue
TTITLE7=Tom Waits - Instrumental Montage (The Tango, Circus Girl)
TTITLE8=Tom Waits - You Can't Unring A Bell
TTITLE9=Tom Waits and Crystal Gayle - This One's From The Heart
TTITLE10=Crystal Gayle - Take Me Home
TTITLE11=Bob Alcivar, conductor - Presents
EXTD=
EXTT0=
EXTT1=
EXTT2=
EXTT3=
EXTT4=
EXTT5=
EXTT6=
EXTT7=
EXTT8=
EXTT9=
EXTT10=
EXTT11=
PLAYORDER=
